<?xml version="1.0" encoding="UTF-8" standalone="no"?>
<!-- Created with Inkscape (http://www.inkscape.org/) -->

<svg
   width="210mm"
   height="297mm"
   viewBox="0 0 210 297"
   version="1.1"
   id="svg1"
   xml:space="preserve"
   inkscape:version="1.3 (0e150ed, 2023-07-21)"
   sodipodi:docname="logo.svg"
   xmlns:inkscape="http://www.inkscape.org/namespaces/inkscape"
   xmlns:sodipodi="http://sodipodi.sourceforge.net/DTD/sodipodi-0.dtd"
   xmlns="http://www.w3.org/2000/svg"
   xmlns:svg="http://www.w3.org/2000/svg"><sodipodi:namedview
     id="namedview1"
     pagecolor="#ffffff"
     bordercolor="#000000"
     borderopacity="0.25"
     inkscape:showpageshadow="2"
     inkscape:pageopacity="0.0"
     inkscape:pagecheckerboard="0"
     inkscape:deskcolor="#d1d1d1"
     inkscape:document-units="mm"
     inkscape:zoom="0.73038547"
     inkscape:cx="439.49396"
     inkscape:cy="591.4685"
     inkscape:window-width="1512"
     inkscape:window-height="945"
     inkscape:window-x="0"
     inkscape:window-y="37"
     inkscape:window-maximized="0"
     inkscape:current-layer="g16" /><defs
     id="defs1" /><g
     inkscape:label="Layer 1"
     inkscape:groupmode="layer"
     id="layer1"><g
       id="g16"
       style="display:inline"
       transform="translate(0.54634857,-0.56893921)"><ellipse
         style="display:inline;fill:#000712;fill-opacity:1;stroke:#000000;stroke-width:0.990964"
         id="path2"
         cx="-104.45365"
         cy="149.06894"
         rx="79.031158"
         ry="78.91407"
         transform="scale(-1,1)" /><path
         style="display:inline;fill:#f8fae3;fill-opacity:1;stroke:none;stroke-width:0.264999"
         d="m 99.788611,111.21828 0.152395,-14.233747 -0.121915,-0.579104 -0.182875,-0.36575 -0.335272,-0.640061 -0.426707,-0.518144 -0.548624,-0.579102 -0.761976,-0.609584 -1.036291,-0.548624 -1.249643,-0.182875 -1.310603,-0.09144 -2.164016,0.06096 -2.621203,0.670539 -1.432518,0.548624 -1.950664,0.975331 -1.462998,0.914373 -2.164017,1.554435 -1.402037,1.158206 -26.09012,25.297663 -1.219166,1.28013 -1.036288,1.09725 -0.975334,1.28012 -0.853413,1.40204 -0.853417,1.58491 -0.670538,1.64587 -0.42671,1.64587 -0.304789,1.58492 -0.121918,1.34108 v 1.44776 l 16.336804,0.0762 0.09144,-0.88389 0.426707,-1.28012 0.670542,-1.95066 0.822936,-1.67636 1.127728,-1.73731 1.371558,-1.82874 1.40204,-1.3106 1.676352,-1.55444 2.986953,-2.6212 1.462998,-1.52396 2.804078,-2.83456 2.285931,-2.07257 2.438331,-2.37738 2.438328,-1.82874 1.645873,-0.70102 2.072579,-0.70102 0.944851,-0.1524 1.280123,-0.15239 z"
         id="path4" /><path
         style="display:inline;fill:#4a5d67;fill-opacity:1;stroke:none;stroke-width:0.264999"
         d="m 70.425918,127.65196 3.070666,-2.15345 2.273091,-1.27612 2.113574,-0.7577 1.276123,-0.35891 1.555271,-0.31903 2.153454,-0.15951 2.23321,-0.0798 14.635512,-0.0798 v -11.28569 l -7.058544,0.0399 -2.312969,0.31903 -3.509332,1.316 -2.631999,1.91418 -8.534058,8.17515 -0.677939,0.79757 z"
         id="path5" /><path
         style="display:inline;fill:#4a5d67;fill-opacity:1;stroke:none;stroke-width:0.264999"
         d="m 138.19425,127.82897 -3.07067,-2.15345 -2.27309,-1.27612 -2.11357,-0.7577 -1.27613,-0.35891 -1.55527,-0.31903 -2.15345,-0.15951 -2.23321,-0.0798 -14.63551,-0.0798 v -11.28569 l 7.05854,0.0399 2.31297,0.31903 3.50933,1.316 2.632,1.91418 8.53406,8.17515 0.67794,0.79757 z"
         id="path6" /><path
         style="display:inline;fill:#f8fae3;fill-opacity:1;stroke:none;stroke-width:0.264999"
         d="m 108.73044,111.21816 -0.1524,-14.233741 0.12192,-0.57911 0.18287,-0.36575 0.33528,-0.64006 0.4267,-0.51814 0.54863,-0.57911 0.76197,-0.60958 1.03629,-0.54862 1.24965,-0.18288 1.3106,-0.0914 2.16402,0.061 2.6212,0.67054 1.43252,0.54862 1.95066,0.97534 1.463,0.91437 2.16402,1.55443 1.40203,1.15821 26.09012,25.297661 1.21917,1.28013 1.03629,1.09725 0.97533,1.28012 0.85341,1.40204 0.85342,1.58491 0.67054,1.64587 0.42671,1.64587 0.30479,1.58492 0.12192,1.34108 v 1.44776 l -16.33681,0.0762 -0.0914,-0.88389 -0.42671,-1.28012 -0.67054,-1.95066 -0.82293,-1.67636 -1.12773,-1.73731 -1.37156,-1.82874 -1.40204,-1.3106 -1.67635,-1.55444 -2.98695,-2.6212 -1.463,-1.52396 -2.80408,-2.83456 -2.28593,-2.07257 -2.43833,-2.37738 -2.43833,-1.82874 -1.64587,-0.70102 -2.07258,-0.70102 -0.94485,-0.1524 -1.28013,-0.15239 z"
         id="path7" /><path
         style="display:inline;fill:#1b2632;fill-opacity:1;stroke:none;stroke-width:0.264999"
         d="m 109.08446,182.04115 -0.1524,14.23374 0.12192,0.57911 0.18287,0.36575 0.33528,0.64006 0.4267,0.51814 0.54863,0.57911 0.76197,0.60958 1.03629,0.54862 1.24965,0.18288 1.3106,0.0914 2.16402,-0.061 2.6212,-0.67054 1.43252,-0.54862 1.95066,-0.97534 1.463,-0.91437 2.16402,-1.55443 1.40203,-1.15821 26.09012,-25.29766 1.21917,-1.28013 1.03629,-1.09725 0.97533,-1.28012 0.85341,-1.40204 0.85342,-1.58491 0.67054,-1.64587 0.42671,-1.64587 0.30479,-1.58492 0.12192,-1.34108 v -1.44776 l -16.33681,-0.0762 -0.0914,0.88389 -0.42671,1.28012 -0.67054,1.95066 -0.82293,1.67636 -1.12773,1.73731 -1.37156,1.82874 -1.40204,1.3106 -1.67635,1.55444 -2.98695,2.6212 -1.463,1.52396 -2.80408,2.83456 -2.28593,2.07257 -2.43833,2.37738 -2.43833,1.82874 -1.64587,0.70102 -2.07258,0.70102 -0.94485,0.1524 -1.28013,0.15239 z"
         id="path8" /><path
         style="display:inline;fill:#25a9ff;fill-opacity:1;stroke:none;stroke-width:0.264999"
         d="m 138.30075,165.6068 -3.00016,2.57651 -2.27309,1.27612 -2.11357,0.7577 -1.27613,0.35891 -1.55527,0.31903 -2.15345,0.15951 -2.23321,0.0798 -14.63551,0.0798 v 11.28569 l 7.05854,-0.0399 2.31297,-0.31903 3.50933,-1.316 2.632,-1.91418 8.53406,-8.17515 0.67794,-0.79757 z"
         id="path9"
         sodipodi:nodetypes="ccccccccccccccccc" /><path
         style="display:inline;fill:#1b2632;fill-opacity:1;stroke:none;stroke-width:0.264999"
         d="m 99.862233,182.04115 0.152397,14.23374 -0.121917,0.57911 -0.18287,0.36575 -0.33528,0.64006 -0.4267,0.51814 -0.54863,0.57911 -0.76197,0.60958 -1.03629,0.54862 -1.24965,0.18288 -1.3106,0.0914 -2.16402,-0.061 -2.6212,-0.67054 -1.43252,-0.54862 -1.95066,-0.97534 -1.463,-0.91437 -2.16402,-1.55443 -1.40203,-1.15821 -26.09012,-25.29766 -1.21917,-1.28013 -1.03629,-1.09725 -0.97533,-1.28012 -0.85341,-1.40204 -0.85342,-1.58491 -0.67054,-1.64587 -0.42671,-1.64587 -0.30479,-1.58492 -0.12192,-1.34108 v -1.44776 l 16.33681,-0.0762 0.0914,0.88389 0.42671,1.28012 0.67054,1.95066 0.82293,1.67636 1.12773,1.73731 1.37156,1.82874 1.40204,1.3106 1.67635,1.55444 2.98695,2.6212 1.463,1.52396 2.80408,2.83456 2.28593,2.07257 2.43833,2.37738 2.43833,1.82874 1.64587,0.70102 2.07258,0.70102 0.94485,0.1524 1.28013,0.15239 z"
         id="path10" /><path
         style="display:inline;fill:#26adff;fill-opacity:1;stroke:none;stroke-width:0.264999"
         d="m 70.783308,165.6068 3.00016,2.57651 2.27309,1.27612 2.11357,0.7577 1.27613,0.35891 1.55527,0.31903 2.15345,0.15951 2.23321,0.0798 14.635512,0.0798 v 11.28569 l -7.058542,-0.0399 -2.31297,-0.31903 -3.50933,-1.316 -2.632,-1.91418 -8.53406,-8.17515 -0.67794,-0.79757 z"
         id="path11"
         sodipodi:nodetypes="ccccccccccccccccc" /><ellipse
         style="display:inline;fill:#485b64;fill-opacity:1;stroke:#000000;stroke-width:0.456505"
         id="path12"
         cx="81.637955"
         cy="147.15976"
         rx="7.6915689"
         ry="14.67953" /><path
         style="display:none;fill:#f8fae3;fill-opacity:1;stroke:#000000;stroke-width:0.264999"
         d="m 76.953705,151.89985 0.640556,-0.84073 0.400349,-0.64056 0.720627,-0.64056 1.161011,-0.8007 1.120976,-0.2402 1.281115,0.0801 1.120976,0.48042 0.720627,0.48042 0.520451,0.40035 0.480417,0.60052 0.520454,1.00087 0.280244,-1.32115 0.120105,-1.0409 0.04003,-1.16101 0.04004,-2.24195 -0.200174,-0.8007 -0.24021,-1.16101 -0.320278,-1.20105 -0.320278,-0.80069 -0.440383,-1.12098 -0.600522,-0.96083 -0.640559,-0.76067 -0.800695,-0.52045 -0.920803,-0.36031 h -0.9208 l -0.800696,0.48041 -0.880768,0.64056 -0.640557,0.96084 -0.560488,1.0409 -0.520451,1.12098 -0.24021,0.96084 -0.200176,0.84073 -0.280241,1.60139 -0.04004,0.9208 v 1.04091 l -0.04003,1.12097 0.04003,0.6806 z"
         id="path13" /><ellipse
         style="display:inline;fill:#485b64;fill-opacity:1;stroke:#000000;stroke-width:0.456505"
         id="ellipse13"
         cx="126.83567"
         cy="147.33701"
         rx="7.6915689"
         ry="14.67953" /><path
         style="display:none;fill:#f8fae3;fill-opacity:1;stroke:#000000;stroke-width:0.264999"
         d="m 122.69387,152.00645 0.64056,-0.84073 0.40035,-0.64056 0.72063,-0.64056 1.16101,-0.8007 1.12097,-0.2402 1.28112,0.0801 1.12097,0.48042 0.72063,0.48042 0.52045,0.40035 0.48042,0.60052 0.52045,1.00087 0.28025,-1.32115 0.1201,-1.0409 0.04,-1.16101 0.04,-2.24195 -0.20017,-0.8007 -0.24021,-1.16101 -0.32028,-1.20105 -0.32028,-0.80069 -0.44038,-1.12098 -0.60052,-0.96083 -0.64056,-0.76067 -0.8007,-0.52045 -0.9208,-0.36031 h -0.9208 l -0.8007,0.48041 -0.88076,0.64056 -0.64056,0.96084 -0.56049,1.0409 -0.52045,1.12098 -0.24021,0.96084 -0.20018,0.84073 -0.28024,1.60139 -0.04,0.9208 v 1.04091 l -0.04,1.12097 0.04,0.6806 z"
         id="path14" /><rect
         style="fill:#26adff;fill-opacity:1;stroke:none;stroke-width:0.264999"
         id="rect15"
         width="15.688497"
         height="15.894924"
         x="48.392178"
         y="138.60104" /><rect
         style="fill:#26adff;fill-opacity:1;stroke:none;stroke-width:0.26665"
         id="rect16"
         width="15.886247"
         height="15.893273"
         x="144.42322"
         y="138.72017" /><ellipse
         style="fill:#f8fae3;fill-opacity:1;stroke:none;stroke-width:0.264999"
         id="path16"
         cx="81.344177"
         cy="147.36905"
         rx="3.8614745"
         ry="9.7486401" /><ellipse
         style="fill:#f8fae3;fill-opacity:1;stroke:none;stroke-width:0.264999"
         id="ellipse16"
         cx="126.98859"
         cy="147.57939"
         rx="3.8614745"
         ry="9.7486401" /><ellipse
         style="fill:#485b64;fill-opacity:1;stroke:none;stroke-width:0.422704"
         id="path17"
         cx="81.321762"
         cy="151.44337"
         rx="4.0224214"
         ry="6.0336323" /><ellipse
         style="fill:#485b64;fill-opacity:1;stroke:none;stroke-width:0.422704"
         id="ellipse17"
         cx="126.98808"
         cy="151.29144"
         rx="4.0224214"
         ry="6.0336323" /></g></g></svg>
