<?xml version="1.0" encoding="UTF-8" standalone="no"?>
<!-- Created with Inkscape (http://www.inkscape.org/) -->

<svg
   width="210mm"
   height="297mm"
   viewBox="0 0 210 297"
   version="1.1"
   id="svg1"
   xml:space="preserve"
   inkscape:version="1.3 (0e150ed, 2023-07-21)"
   sodipodi:docname="logo.svg"
   xmlns:inkscape="http://www.inkscape.org/namespaces/inkscape"
   xmlns:sodipodi="http://sodipodi.sourceforge.net/DTD/sodipodi-0.dtd"
   xmlns="http://www.w3.org/2000/svg"
   xmlns:svg="http://www.w3.org/2000/svg"><sodipodi:namedview
     id="namedview1"
     pagecolor="#ffffff"
     bordercolor="#000000"
     borderopacity="0.25"
     inkscape:showpageshadow="2"
     inkscape:pageopacity="0.0"
     inkscape:pagecheckerboard="0"
     inkscape:deskcolor="#d1d1d1"
     inkscape:document-units="mm"
     inkscape:zoom="0.54802628"
     inkscape:cx="394.14168"
     inkscape:cy="659.6399"
     inkscape:window-width="1296"
     inkscape:window-height="842"
     inkscape:window-x="222"
     inkscape:window-y="38"
     inkscape:window-maximized="0"
     inkscape:current-layer="g16" /><defs
     id="defs1" /><g
     inkscape:label="Layer 1"
     inkscape:groupmode="layer"
     id="layer1"><g
       id="g16"
       style="display:inline"
       transform="translate(0.54634857,-0.56893921)"><ellipse
         style="display:inline;fill:#000000;fill-opacity:0;stroke:none;stroke-width:1.75983"
         id="path2"
         cx="-104.45365"
         cy="149.06894"
         rx="143.72543"
         ry="136.84924"
         transform="scale(-1,1)" /><ellipse
         style="display:inline;fill:#1b2632;fill-opacity:1;stroke-width:0.623922"
         id="path1"
         cx="104.99809"
         cy="146.411"
         rx="101.56853"
         ry="47.664597" /><rect
         style="display:inline;fill:#1b2632;fill-opacity:1;stroke-width:0.752123"
         id="rect2"
         width="205.87598"
         height="29.16464"
         x="1.603619"
         y="130.5228" /><rect
         style="display:inline;fill:#1b2632;fill-opacity:1;stroke-width:0.470604"
         id="rect1"
         width="36.51902"
         height="100.11741"
         x="84.684387"
         y="95.699356" /><path
         style="display:inline;fill:#f8fae3;fill-opacity:1;stroke:#000000;stroke-width:0.470604;stroke-opacity:1"
         d="M 95.969846,83.43002 96.24699,58.746494 96.025276,57.742237 95.692701,57.10797 95.082978,55.998005 94.306972,55.099463 93.309249,54.09521 l -1.385723,-1.057113 -1.884591,-0.951399 -2.272591,-0.317134 -2.383452,-0.158571 -3.935462,0.105714 -4.7669,1.162819 -2.605165,0.951399 -3.547463,1.691375 -2.660596,1.585665 -3.935464,2.695632 -2.549734,2.008509 -47.447286,43.870074 -2.217165,2.21994 -1.8845856,1.90281 -1.7737347,2.21992 -1.5520101,2.43136 -1.5520175,2.74848 -1.2194351,2.85419 -0.7760114,2.8542 -0.5542869,2.74849 -0.2217191,2.32564 v 2.51064 l 29.7099824,0.13215 0.166292,-1.5328 0.776006,-2.21993 1.219443,-3.38275 1.496585,-2.90707 2.050877,-3.01276 2.494304,-3.17132 2.549739,-2.27279 3.048601,-2.69564 5.432049,-4.54556 2.660596,-2.64279 5.099474,-4.915564 4.157177,-3.594158 4.434329,-4.122746 4.434324,-3.171319 2.993172,-1.215677 3.769175,-1.215678 1.718299,-0.264285 2.328022,-0.264268 z"
         id="path4" /><path
         style="display:inline;fill:#4a5d67;fill-opacity:1;stroke:none;stroke-width:0.470604"
         d="m 42.571084,111.92857 5.584289,-3.73441 4.133826,-2.21299 3.843729,-1.31397 2.320747,-0.62241 2.828403,-0.55325 3.916255,-0.27661 4.061298,-0.13839 26.616026,-0.13838 V 83.367019 l -12.836612,0.06919 -4.206347,0.553248 -6.382044,2.282148 -4.786532,3.319486 -15.519971,14.176979 -1.232894,1.38311 z"
         id="path5" /><path
         style="display:inline;fill:#4a5d67;fill-opacity:1;stroke:none;stroke-width:0.470604"
         d="m 165.81404,112.23554 -5.5843,-3.73442 -4.13382,-2.21299 -3.84372,-1.31397 -2.32076,-0.62241 -2.82841,-0.55324 -3.91624,-0.27662 -4.0613,-0.13838 -26.61602,-0.13839 V 83.673981 l 12.8366,0.06919 4.20635,0.553248 6.38204,2.282148 4.78653,3.319485 15.51998,14.176978 1.23289,1.38311 z"
         id="path6" /><path
         style="display:inline;fill:#f8fae3;fill-opacity:1;stroke:#000000;stroke-width:0.470604;stroke-opacity:1"
         d="m 112.23139,83.429812 -0.27716,-24.683516 0.22172,-1.004267 0.33257,-0.634267 0.60974,-1.109963 0.77599,-0.898536 0.99774,-1.004266 1.38571,-1.057107 1.88459,-0.951392 2.2726,-0.317142 2.38345,-0.158502 3.93547,0.105784 4.76689,1.16282 2.60517,0.951392 3.54746,1.691391 2.6606,1.58566 3.93546,2.695623 2.54973,2.008516 47.44728,43.87007 2.21717,2.21994 1.88459,1.90281 1.77373,2.21992 1.55201,2.43136 1.55202,2.74848 1.21944,2.85419 0.77601,2.8542 0.55429,2.74849 0.22172,2.32564 v 2.51065 l -29.70999,0.13214 -0.16622,-1.5328 -0.77601,-2.21993 -1.21944,-3.38275 -1.49658,-2.90707 -2.05088,-3.01276 -2.49431,-3.17132 -2.54973,-2.27278 -3.0486,-2.69565 -5.43205,-4.54556 -2.6606,-2.64279 -5.09947,-4.915563 -4.15718,-3.594158 -4.43433,-4.122746 -4.43432,-3.171319 -2.99317,-1.215678 -3.76918,-1.215677 -1.71829,-0.264286 -2.32804,-0.264267 z"
         id="path7" /><path
         style="display:inline;fill:#1b2632;fill-opacity:1;stroke:#000000;stroke-width:0.470604;stroke-opacity:1"
         d="m 112.8752,206.24787 -0.27715,24.68352 0.22172,1.00426 0.33257,0.63427 0.60974,1.10996 0.77599,0.89854 0.99773,1.00426 1.38572,1.05711 1.88458,0.95139 2.27261,0.31715 2.38345,0.1585 3.93547,-0.10579 4.76689,-1.16282 2.60517,-0.95139 3.54745,-1.69139 2.6606,-1.58566 3.93547,-2.69562 2.54972,-2.00852 47.44729,-43.87007 2.21717,-2.21994 1.88459,-1.9028 1.77373,-2.21993 1.552,-2.43136 1.55203,-2.74848 1.21944,-2.85419 0.77601,-2.85419 0.55429,-2.7485 0.22172,-2.32564 v -2.51064 l -29.71,-0.13214 -0.16621,1.5328 -0.77602,2.21992 -1.21944,3.38275 -1.49657,2.90707 -2.05088,3.01277 -2.49431,3.17131 -2.54974,2.27279 -3.04859,2.69564 -5.43205,4.54557 -2.6606,2.64278 -5.09948,4.91557 -4.15717,3.59415 -4.43433,4.12275 -4.43433,3.17132 -2.99316,1.21568 -3.76918,1.21567 -1.7183,0.26429 -2.32803,0.26427 z"
         id="path8" /><path
         style="display:inline;fill:#00008b;fill-opacity:1;stroke:none;stroke-width:0.470604"
         d="m 166.00772,177.74816 -5.45607,4.46807 -4.13382,2.21299 -3.84373,1.31396 -2.32076,0.62241 -2.8284,0.55325 -3.91624,0.27661 -4.0613,0.13839 -26.61602,0.13838 v 19.57114 l 12.8366,-0.0692 4.20635,-0.55325 6.38204,-2.28215 4.78653,-3.31948 15.51998,-14.17698 1.23289,-1.38311 z"
         id="path9"
         sodipodi:nodetypes="ccccccccccccccccc" /><path
         style="display:inline;fill:#1b2632;fill-opacity:1;stroke:#000000;stroke-width:0.470604;stroke-opacity:1"
         d="m 96.103734,206.24787 0.277148,24.68352 -0.221717,1.00426 -0.332566,0.63427 -0.609738,1.10996 -0.775993,0.89854 -0.997734,1.00426 -1.385713,1.05711 -1.884588,0.95139 -2.272604,0.31715 -2.383447,0.1585 -3.93547,-0.10579 -4.766893,-1.16282 -2.60517,-0.95139 -3.547455,-1.69139 -2.6606,-1.58566 -3.935469,-2.69562 -2.549721,-2.00852 -47.447286,-43.87007 -2.217173,-2.21994 -1.8845889,-1.9028 -1.7737274,-2.21993 -1.5520047,-2.43136 -1.5520228,-2.74848 -1.2194388,-2.85419 -0.7760114,-2.85419 -0.5542887,-2.7485 -0.2217227,-2.32564 v -2.51064 l 29.7099934,-0.13214 0.166219,1.5328 0.776012,2.21992 1.219439,3.38275 1.496574,2.90707 2.05088,3.01277 2.494309,3.17131 2.549738,2.27279 3.048597,2.69564 5.432044,4.54557 2.6606,2.64278 5.099478,4.91557 4.157174,3.59415 4.434328,4.12275 4.434327,3.17132 2.993167,1.21568 3.769177,1.21567 1.718297,0.26429 2.328034,0.26427 z"
         id="path10" /><path
         style="display:inline;fill:#00008b;fill-opacity:1;stroke:none;stroke-width:0.470604"
         d="m 43.221031,177.74816 5.456067,4.46807 4.133824,2.21299 3.843721,1.31396 2.32076,0.62241 2.828402,0.55325 3.916247,0.27661 4.061298,0.13839 26.616027,0.13838 v 19.57114 l -12.836609,-0.0692 -4.206349,-0.55325 -6.38204,-2.28215 -4.786534,-3.31948 -15.519974,-14.17698 -1.232896,-1.38311 z"
         id="path11"
         sodipodi:nodetypes="ccccccccccccccccc" /><ellipse
         style="display:inline;fill:#485b64;fill-opacity:1;stroke:#000000;stroke-width:0.810694"
         id="path12"
         cx="62.961205"
         cy="145.75812"
         rx="13.987826"
         ry="25.456585" /><path
         style="display:none;fill:#f8fae3;fill-opacity:1;stroke:#000000;stroke-width:0.264999"
         d="m 76.953705,151.89985 0.640556,-0.84073 0.400349,-0.64056 0.720627,-0.64056 1.161011,-0.8007 1.120976,-0.2402 1.281115,0.0801 1.120976,0.48042 0.720627,0.48042 0.520451,0.40035 0.480417,0.60052 0.520454,1.00087 0.280244,-1.32115 0.120105,-1.0409 0.04003,-1.16101 0.04004,-2.24195 -0.200174,-0.8007 -0.24021,-1.16101 -0.320278,-1.20105 -0.320278,-0.80069 -0.440383,-1.12098 -0.600522,-0.96083 -0.640559,-0.76067 -0.800695,-0.52045 -0.920803,-0.36031 h -0.9208 l -0.800696,0.48041 -0.880768,0.64056 -0.640557,0.96084 -0.560488,1.0409 -0.520451,1.12098 -0.24021,0.96084 -0.200176,0.84073 -0.280241,1.60139 -0.04004,0.9208 v 1.04091 l -0.04003,1.12097 0.04003,0.6806 z"
         id="path13" /><ellipse
         style="display:inline;fill:#485b64;fill-opacity:1;stroke:#000000;stroke-width:0.810694"
         id="ellipse13"
         cx="145.15741"
         cy="146.06549"
         rx="13.987826"
         ry="25.456585" /><path
         style="display:none;fill:#f8fae3;fill-opacity:1;stroke:#000000;stroke-width:0.264999"
         d="m 122.69387,152.00645 0.64056,-0.84073 0.40035,-0.64056 0.72063,-0.64056 1.16101,-0.8007 1.12097,-0.2402 1.28112,0.0801 1.12097,0.48042 0.72063,0.48042 0.52045,0.40035 0.48042,0.60052 0.52045,1.00087 0.28025,-1.32115 0.1201,-1.0409 0.04,-1.16101 0.04,-2.24195 -0.20017,-0.8007 -0.24021,-1.16101 -0.32028,-1.20105 -0.32028,-0.80069 -0.44038,-1.12098 -0.60052,-0.96083 -0.64056,-0.76067 -0.8007,-0.52045 -0.9208,-0.36031 h -0.9208 l -0.8007,0.48041 -0.88076,0.64056 -0.64056,0.96084 -0.56049,1.0409 -0.52045,1.12098 -0.24021,0.96084 -0.20018,0.84073 -0.28024,1.60139 -0.04,0.9208 v 1.04091 l -0.04,1.12097 0.04,0.6806 z"
         id="path14" /><rect
         style="fill:#00008b;fill-opacity:1;stroke:#000000;stroke-width:0.470604;stroke-opacity:1"
         id="rect15"
         width="28.530975"
         height="27.564266"
         x="2.5006983"
         y="130.91599" /><rect
         style="fill:#00008b;fill-opacity:1;stroke:#000000;stroke-width:0.473536;stroke-opacity:1"
         id="rect16"
         width="28.890602"
         height="27.561403"
         x="177.14198"
         y="131.12256" /><ellipse
         style="fill:#f8fae3;fill-opacity:1;stroke:none;stroke-width:0.470604"
         id="path16"
         cx="62.426945"
         cy="146.12106"
         rx="7.0224471"
         ry="16.905655" /><ellipse
         style="fill:#f8fae3;fill-opacity:1;stroke:none;stroke-width:0.470604"
         id="ellipse16"
         cx="145.4355"
         cy="146.48584"
         rx="7.0224471"
         ry="16.905655" /><ellipse
         style="fill:#485b64;fill-opacity:1;stroke:none;stroke-width:0.750668"
         id="path17"
         cx="62.386181"
         cy="153.18658"
         rx="7.3151436"
         ry="10.463255" /><ellipse
         style="fill:#485b64;fill-opacity:1;stroke:none;stroke-width:0.750668"
         id="ellipse17"
         cx="145.43459"
         cy="152.92311"
         rx="7.3151436"
         ry="10.463255" /></g></g></svg>
